<svg id="Layer_1" data-name="Layer 1" xmlns="http://www.w3.org/2000/svg" viewBox="0 0 213.51 56.05"><title>jzhc-footer-logo</title><polygon points="0 0.12 0 37.56 25.03 37.56 19.15 18.84 25.03 0.12 0 0.12" style="fill:#231f20"/><polygon points="34.45 0.12 22.84 18.84 34.45 37.56 52.2 37.56 52.2 0.12 34.45 0.12" style="fill:#0099d8"/><path d="M359,325.67a2.25,2.25,0,0,0-2.51-1.83c-2.73,0-3.56,2.48-3.56,4.66s.83,4.66,3.56,4.66a2.49,2.49,0,0,0,2.63-1.92h1a3.55,3.55,0,0,1-3.66,2.8c-3.23,0-4.59-2.6-4.59-5.55s1.37-5.55,4.59-5.55c1.74,0,3.39.8,3.54,2.71Z" transform="translate(-290.38 -278.01)" style="fill:#231f20"/><path d="M367.13,334.05c-3.05,0-4.75-2.23-4.75-5.55s1.7-5.55,4.75-5.55,4.75,2.23,4.75,5.55S370.18,334.05,367.13,334.05Zm0-.88c2.66,0,3.72-2.33,3.72-4.66s-1.06-4.66-3.72-4.66-3.72,2.33-3.72,4.66S364.47,333.17,367.13,333.17Z" transform="translate(-290.38 -278.01)" style="fill:#231f20"/><path d="M375.48,333.83V323.18H377l4,9.28,4.09-9.28h1.46v10.65h-1V324h0l-4.07,9.84h-1l-4.07-9.8h0v9.8Z" transform="translate(-290.38 -278.01)" style="fill:#231f20"/><path d="M390.64,333.83V323.18h3.82a2.71,2.71,0,0,1,3,2.66,2.5,2.5,0,0,1-2,2.41v0a2.63,2.63,0,0,1,2.42,2.7c0,1.4-.86,2.85-3.17,2.85Zm3.28-6c1.24,0,2.48-.49,2.48-1.93s-1.27-1.86-2.52-1.87h-2.27v3.81Zm-2.32,5.08h2.35c1.83,0,2.89-.46,2.89-2.09,0-1.81-1.46-2.09-3.47-2.09h-1.77Z" transform="translate(-290.38 -278.01)" style="fill:#231f20"/><path d="M402.28,323.18v6.89c.07,1.93,1.18,3.1,2.94,3.1s2.86-1.17,2.94-3.1v-6.89h1v6.91c0,2.29-1.31,4-3.9,4s-3.87-1.68-3.9-4v-6.91Z" transform="translate(-290.38 -278.01)" style="fill:#231f20"/><path d="M415.45,334.05a3.08,3.08,0,0,1-3.17-3h1c0,1.64,1.24,2.11,2.67,2.11,1.2,0,2.57-.69,2.57-2.05,0-1.06-.77-1.56-1.67-1.86-1.73-.58-4.35-1.12-4.35-3.42,0-1.86,1.71-2.88,3.39-2.88,1.4,0,3.23.49,3.47,2.54h-1c0-1.31-1.22-1.65-2.32-1.65s-2.48.56-2.48,1.86c0,3,6,1.65,6,5.33C419.59,333.34,417.59,334.05,415.45,334.05Z" transform="translate(-290.38 -278.01)" style="fill:#231f20"/><path d="M425.27,324.06h-3.44v-.89h7.79v.89h-3.38v9.77h-.94Z" transform="translate(-290.38 -278.01)" style="fill:#231f20"/><path d="M432.59,333.83v-10.7h1v10.7Z" transform="translate(-290.38 -278.01)" style="fill:#231f20"/><path d="M441.73,334.05c-3.05,0-4.75-2.23-4.75-5.55s1.7-5.55,4.75-5.55,4.75,2.23,4.75,5.55S444.79,334.05,441.73,334.05Zm0-.88c2.66,0,3.72-2.33,3.72-4.66s-1.06-4.66-3.72-4.66S438,326.17,438,328.5,439.08,333.17,441.73,333.17Z" transform="translate(-290.38 -278.01)" style="fill:#231f20"/><path d="M449.72,323.18h1.09l5.87,9.37h0v-9.37h1v10.65h-1.21l-5.75-9.21h0v9.21h-1Z" transform="translate(-290.38 -278.01)" style="fill:#231f20"/><path d="M365.67,315.56h-4.18v-6.14H356v6.14h-4.18V299.9H356v5.89h5.45V299.9h4.18Z" transform="translate(-290.38 -278.01)" style="fill:#231f20"/><path d="M371.85,312.87l-.77,2.69h-4.34l4.7-15.67h6.35l4.76,15.67h-4.26l-.81-2.69Zm2.84-9.84h0l-1.9,6.79h3.89Z" transform="translate(-290.38 -278.01)" style="fill:#231f20"/><path d="M387.75,315.56h-4.18V299.9h6.62l3,9.84h.15l2.84-9.84H403v15.67h-4.18l.42-12h-.15l-4,12h-3.61l-4-12h-.13Z" transform="translate(-290.38 -278.01)" style="fill:#231f20"/><path d="M423.27,299.9h4.2L424,315.56h-6l-2.13-9.82h-.17l-2.28,9.82h-6L404,299.9h4.24L410.53,312h.15l2.95-12.07H418l2.8,12.07h.15Z" transform="translate(-290.38 -278.01)" style="fill:#231f20"/><path d="M428,309.95v-4.43c0-4.83,3-5.74,7.25-5.74s7.25.92,7.25,5.74v4.43c0,4.83-3,5.74-7.25,5.74S428,314.77,428,309.95Zm10.19-.46V306c0-2.32-.77-2.55-2.95-2.55s-2.88.23-2.95,2.55v3.53c.06,2.34.77,2.57,2.95,2.57S438.17,311.83,438.17,309.49Z" transform="translate(-290.38 -278.01)" style="fill:#231f20"/><path d="M444.36,299.9h8.06c3.61.06,5.39.84,5.39,4.74,0,2.61,0,4.14-3,4.83v.17a2.61,2.61,0,0,1,2.82,2.78v3.15h-4.18v-2.19c0-1.17-.46-2-1.71-2h-3.24v4.16h-4.18Zm7.42,7.88c1.8,0,1.73-.67,1.73-2.44,0-1.4-.35-1.8-1.73-1.8h-3.24v4.24Z" transform="translate(-290.38 -278.01)" style="fill:#231f20"/><path d="M467.24,315.56h-4.18v-12h-4V299.9h12.41v3.63h-4.22Z" transform="translate(-290.38 -278.01)" style="fill:#231f20"/><path d="M487,315.56h-4.18v-6.14H477.4v6.14h-4.18V299.9h4.18v5.89h5.45V299.9H487Z" transform="translate(-290.38 -278.01)" style="fill:#231f20"/><path d="M498.16,310.07v5.49H494v-5.49l-5.56-10.17h4.78l2.8,6h.15l2.88-6h4.85Z" transform="translate(-290.38 -278.01)" style="fill:#231f20"/><path d="M362.75,278.13V289c0,4.2-1.25,5-5.64,5s-5.24-1-5.24-5.39v-1.29h4v1.29c0,1.3.15,1.75,1.27,1.75,1.3,0,1.46-.33,1.46-1.32V278.13Z" transform="translate(-290.38 -278.01)" style="fill:#231f20"/><path d="M364.68,288.18v-4.43c0-4.83,3-5.74,7.25-5.74s7.25.92,7.25,5.74v4.43c0,4.83-3,5.74-7.25,5.74S364.68,293,364.68,288.18Zm10.19-.46v-3.53c0-2.32-.77-2.55-2.95-2.55s-2.88.23-2.95,2.55v3.53c.06,2.34.77,2.57,2.95,2.57S374.87,290.06,374.87,287.72Z" transform="translate(-290.38 -278.01)" style="fill:#231f20"/><path d="M394.6,293.8h-4.18v-6.14H385v6.14h-4.18V278.13H385V284h5.45v-5.89h4.18Z" transform="translate(-290.38 -278.01)" style="fill:#231f20"/><path d="M400.95,293.8h-4.18V278.13h7.06l4.49,12h.17l-.25-12h4.18V293.8H405.3l-4.43-12h-.17Z" transform="translate(-290.38 -278.01)" style="fill:#231f20"/><path d="M434.51,281.64,427,290v.13h7.5v3.63H421.7v-3.53l7.39-8.38v-.13h-6.91v-3.63h12.32Z" transform="translate(-290.38 -278.01)" style="fill:#231f20"/><path d="M440.88,293.8H436.7V278.13h4.18Z" transform="translate(-290.38 -278.01)" style="fill:#231f20"/><path d="M447.63,293.8h-4.18V278.13h7.06l4.49,12h.17l-.25-12h4.18V293.8H452l-4.43-12h-.17Z" transform="translate(-290.38 -278.01)" style="fill:#231f20"/><path d="M465.47,284h1.25l4-5.89h5.05l-5.51,7.69,6,8h-5.18l-4.37-6.14h-1.25v6.14H461.3V278.13h4.18Z" transform="translate(-290.38 -278.01)" style="fill:#231f20"/><path d="M463.29,333.87a2.75,2.75,0,1,1,2.75-2.75A2.7,2.7,0,0,1,463.29,333.87Zm0-5.06a2.31,2.31,0,1,0,2.31,2.31A2.27,2.27,0,0,0,463.29,328.81Zm.62,2.55.62,1.21h-.6l-.59-1.16h-.58v1.16h-.51v-3h1.32a.88.88,0,0,1,1,.91A.86.86,0,0,1,463.91,331.36Zm-.36-1.3h-.79v.85h.79c.27,0,.48-.13.48-.43A.42.42,0,0,0,463.55,330.06Z" transform="translate(-290.38 -278.01)" style="fill:#231f20"/></svg>